<svg xmlns="http://www.w3.org/2000/svg" viewBox="0 0 260 260" width="260" height="260"><rect width="260" height="260" fill="#0A0A0A"/>
  <defs>
    <linearGradient id="goldRing" x1="0%" y1="0%" x2="100%" y2="100%">
      <stop offset="0%" stop-color="#C8962E"/>
      <stop offset="25%" stop-color="#E8C560"/>
      <stop offset="50%" stop-color="#F5DFA0"/>
      <stop offset="75%" stop-color="#E8C560"/>
      <stop offset="100%" stop-color="#C8962E"/>
    </linearGradient>
    <clipPath id="outer"><circle cx="130" cy="130" r="97"/></clipPath>
  </defs>
  <circle cx="130" cy="130" r="100" fill="none" stroke="url(#goldRing)" stroke-width="5.5"/>
  <g clip-path="url(#outer)">
    <rect x="33" y="33" width="97" height="194" fill="#C03030"/>
    <rect x="130" y="33" width="97" height="194" fill="#2D8C4E"/>
    <circle cx="130" cy="81.5" r="48.5" fill="#2D8C4E"/>
    <circle cx="130" cy="178.5" r="48.5" fill="#C03030"/>
  </g>
  <circle cx="130" cy="81.5" r="11" fill="#C03030"/>
  <circle cx="130" cy="178.5" r="11" fill="#2D8C4E"/>

  <line x1="155" y1="65" x2="170" y2="52" stroke="#F2D272" stroke-width="2" opacity="0.95"/>
  <line x1="170" y1="52" x2="185" y2="60" stroke="#F2D272" stroke-width="2" opacity="0.95"/>
  <line x1="170" y1="52" x2="175" y2="42" stroke="#F2D272" stroke-width="2" opacity="0.95"/>
  <line x1="155" y1="65" x2="163" y2="88" stroke="#F2D272" stroke-width="2" opacity="0.95"/>
  <circle cx="155" cy="65" r="5.5" fill="#F5E0A0" opacity="1.0"/>
  <circle cx="170" cy="52" r="5" fill="#F5E0A0" opacity="0.98"/>
  <circle cx="185" cy="60" r="4" fill="#E8C560" opacity="0.98"/>
  <circle cx="175" cy="42" r="3.5" fill="#E8C560" opacity="0.95"/>
  <circle cx="163" cy="88" r="4" fill="#E8C560" opacity="0.98"/>
  <line x1="100" y1="175" x2="78" y2="160" stroke="#EDCC70" stroke-width="2" opacity="0.85"/>
  <line x1="78" y1="160" x2="62" y2="172" stroke="#EDCC70" stroke-width="2" opacity="0.85"/>
  <line x1="78" y1="160" x2="68" y2="144" stroke="#EDCC70" stroke-width="2" opacity="0.85"/>
  <line x1="100" y1="175" x2="90" y2="198" stroke="#EDCC70" stroke-width="2" opacity="0.85"/>
  <circle cx="100" cy="175" r="5.5" fill="#F5D890" opacity="0.95"/>
  <circle cx="78" cy="160" r="5" fill="#F5D890" opacity="0.9199999999999999"/>
  <circle cx="62" cy="172" r="4" fill="#EDCC70" opacity="0.88"/>
  <circle cx="68" cy="144" r="3.5" fill="#EDCC70" opacity="0.88"/>
  <circle cx="90" cy="198" r="4" fill="#EDCC70" opacity="0.9199999999999999"/>
</svg>